<svg width="18" height="20" viewBox="0 0 18 20" fill="none" xmlns="http://www.w3.org/2000/svg">
<path fill-rule="evenodd" clip-rule="evenodd" d="M1.53008 0.204344C1.80254 -0.0681147 2.24429 -0.0681147 2.51675 0.204344L3.44698 1.13458C3.71944 1.40704 3.71944 1.84878 3.44698 2.12124C3.17452 2.3937 2.73278 2.3937 2.46032 2.12124L1.53008 1.191C1.25763 0.918546 1.25763 0.476803 1.53008 0.204344ZM12.7493 0.204344C13.0218 0.476803 13.0218 0.918546 12.7493 1.191L11.8191 2.12124C11.5466 2.3937 11.1049 2.3937 10.8324 2.12124C10.56 1.84878 10.56 1.40704 10.8324 1.13458L11.7626 0.204344C12.0351 -0.0681147 12.4768 -0.0681147 12.7493 0.204344ZM7.13969 2.32558C6.75438 2.32558 6.44202 2.63794 6.44202 3.02326V10.9302C6.44202 11.2124 6.27204 11.4668 6.01134 11.5748C5.75063 11.6828 5.45055 11.6231 5.25102 11.4236L3.88384 10.0564C3.54665 9.7196 3.02357 9.65537 2.61491 9.90057C2.29087 10.0948 2.18014 10.5119 2.3654 10.8412C4.12029 13.9606 5.12362 15.7084 5.39838 16.1304C5.39827 16.1302 5.39848 16.1305 5.39838 16.1304L5.57909 16.407C5.57931 16.4073 5.57953 16.4076 5.57974 16.408C6.48314 17.779 8.01505 18.6044 9.65697 18.6047C9.65753 18.6047 9.65808 18.6047 9.65863 18.6047H11.3257C14.0229 18.6047 16.2094 16.4181 16.2094 13.7209V9.53488C16.2094 9.14957 15.8971 8.83721 15.5118 8.83721C15.1282 8.83721 14.8169 9.14679 14.8141 9.52973V10C14.8141 10.3853 14.5018 10.6977 14.1164 10.6977C13.7311 10.6977 13.4188 10.3853 13.4188 10V9.54004C13.4188 9.53832 13.4187 9.5366 13.4187 9.53488C13.4187 9.53191 13.4188 9.52893 13.4188 9.52596V8.60465C13.4188 8.21934 13.1064 7.90698 12.7211 7.90698C12.3358 7.90698 12.0234 8.21934 12.0234 8.60465V10C12.0234 10.3853 11.7111 10.6977 11.3257 10.6977C10.9404 10.6977 10.6281 10.3853 10.6281 10V7.67442C10.6281 7.2891 10.3157 6.97674 9.93039 6.97674C9.54508 6.97674 9.23272 7.2891 9.23272 7.67442V10C9.23272 10.3853 8.92036 10.6977 8.53504 10.6977C8.14973 10.6977 7.83737 10.3853 7.83737 10V3.02326C7.83737 2.63794 7.52501 2.32558 7.13969 2.32558ZM9.23272 5.70049V3.02326C9.23272 1.86731 8.29564 0.930233 7.13969 0.930233C5.98375 0.930233 5.04667 1.86731 5.04667 3.02326V9.24591L4.87021 9.06946C4.08028 8.28043 2.85462 8.12962 1.89721 8.70395M9.23272 5.70049C9.45093 5.62336 9.68576 5.5814 9.93039 5.5814C10.745 5.5814 11.451 6.0468 11.7968 6.72624C12.0756 6.58883 12.3893 6.51163 12.7211 6.51163C13.5357 6.51163 14.2417 6.97703 14.5875 7.65646C14.8663 7.51905 15.18 7.44186 15.5118 7.44186C16.6677 7.44186 17.6048 8.37894 17.6048 9.53488V13.7209C17.6048 17.1888 14.7936 20 11.3257 20H9.65886C9.65882 20 9.6589 20 9.65886 20H9.46526C9.43244 20 9.40016 19.9977 9.36856 19.9934C7.36704 19.9013 5.52214 18.8575 4.41375 17.1744L4.41235 17.1723L4.23002 16.8932L4.2295 16.8924C3.92334 16.4224 2.88955 14.6187 1.1493 11.5253C0.59358 10.5376 0.925255 9.28683 1.89721 8.70395M13.1862 5.11628H12.256C11.8707 5.11628 11.5583 4.80392 11.5583 4.4186C11.5583 4.03329 11.8707 3.72093 12.256 3.72093H13.1862C13.5715 3.72093 13.8839 4.03329 13.8839 4.4186C13.8839 4.80392 13.5715 5.11628 13.1862 5.11628ZM0.395508 5.34884C0.395508 4.96352 0.707867 4.65116 1.09318 4.65116H2.02341C2.40873 4.65116 2.72109 4.96352 2.72109 5.34884C2.72109 5.73415 2.40873 6.04651 2.02341 6.04651H1.09318C0.707867 6.04651 0.395508 5.73415 0.395508 5.34884Z" fill="black"/>
</svg>
