<?xml version="1.0" encoding="UTF-8"?>
<svg version="1.1" xmlns="http://www.w3.org/2000/svg" width="512" height="512">
<path d="M0 0 C4.98017303 2.31222319 7.28773317 5.29643973 10 10 C10.50139666 13.07226562 10.50139666 13.07226562 10.50336456 16.40625 C10.51379555 17.68245209 10.52422654 18.95865417 10.53497362 20.27352905 C10.52632615 21.68235499 10.51729956 23.09117865 10.50793457 24.5 C10.51254453 26.00233566 10.51889808 27.50466681 10.52684355 29.00698853 C10.54354719 33.13214446 10.53528592 37.25693041 10.52289867 41.38208771 C10.51385471 45.83206188 10.52781466 50.28197209 10.53881836 54.73193359 C10.55661516 63.44815467 10.55275843 72.16423806 10.5411678 80.88046455 C10.53213832 87.96361548 10.53090737 95.04672779 10.53526306 102.12988281 C10.53587599 103.13756903 10.53648893 104.14525524 10.53712043 105.1834774 C10.53839932 107.23050182 10.53969617 109.27752623 10.5410108 111.32455063 C10.55242 130.52450091 10.53929755 149.72437483 10.51780933 168.92431259 C10.49993805 185.40270497 10.50304206 201.88098465 10.52148438 218.359375 C10.54288508 237.49010067 10.55132133 256.62075939 10.53903532 275.75149536 C10.53776111 277.79103596 10.53650363 279.83057657 10.53526306 281.87011719 C10.53433741 283.37540009 10.53433741 283.37540009 10.53339306 284.91109276 C10.52993776 291.98664327 10.53577238 299.06215137 10.54518127 306.13769531 C10.55639374 314.75914265 10.55337705 323.3804443 10.5320583 332.00187492 C10.52153774 336.40162043 10.51744312 340.80112293 10.53065491 345.2008667 C10.54256392 349.22763187 10.53604119 353.2539285 10.5147447 357.28065109 C10.51027227 358.73816845 10.51255933 360.1957253 10.52224785 361.65321732 C10.53440215 363.63336758 10.51954901 365.61362857 10.50336456 367.59375 C10.50271515 368.69396484 10.50206574 369.79417969 10.50139666 370.92773438 C9.69340866 375.87861255 7.06941907 378.98405188 3.5 382.375 C-1.55778486 384.72325726 -6.51685793 384.97097307 -12 384 C-16.65528941 381.38596969 -20.40369075 377.96272976 -24.25 374.3125 C-25.39926081 373.23646758 -26.54900468 372.16095088 -27.69921875 371.0859375 C-28.54105713 370.29654785 -28.54105713 370.29654785 -29.39990234 369.49121094 C-31.59559234 367.44493774 -33.82607219 365.43908482 -36.0625 363.4375 C-39.73106954 360.1494628 -43.37254178 356.83326234 -47 353.5 C-50.64927171 350.14706883 -54.31169598 346.81001643 -58 343.5 C-62.20684327 339.72462783 -66.37674853 335.91019552 -70.5390625 332.0859375 C-73.67667086 329.20577393 -76.83020941 326.34468386 -80 323.5 C-84.20684327 319.72462783 -88.37674853 315.91019552 -92.5390625 312.0859375 C-95.67667086 309.20577393 -98.83020941 306.34468386 -102 303.5 C-106.61562827 299.3577695 -111.18703257 295.16875411 -115.75 290.96875 C-116.5062693 290.29871445 -116.5062693 290.29871445 -117.27781677 289.61514282 C-119 288 -119 288 -120.99964905 285.7762146 C-125.615906 280.97079008 -128.98843757 278.42694857 -135.74389648 277.93408203 C-138.28633535 277.91403822 -140.82945532 277.94094527 -143.37109375 278.0078125 C-144.74292564 278.00978312 -146.11477021 278.00732546 -147.48658752 278.0007019 C-151.07537738 277.9931256 -154.66160174 278.03624338 -158.24987793 278.09332275 C-163.98567977 278.17637842 -169.72196691 278.18267541 -175.45826912 278.18636703 C-177.44061586 278.19506897 -179.4228103 278.22794003 -181.40489197 278.26150513 C-194.03887956 278.35670821 -204.26761501 276.12034999 -213.75 267.5 C-214.4925 266.675 -215.235 265.85 -216 265 C-216.680625 264.2575 -217.36125 263.515 -218.0625 262.75 C-222.35197768 256.6617091 -225.10687519 249.89631262 -225.14717102 242.41697693 C-225.15432632 241.50181808 -225.16148163 240.58665924 -225.16885376 239.64376831 C-225.17288712 238.14839035 -225.17288712 238.14839035 -225.17700195 236.62280273 C-225.18685875 235.03909126 -225.18685875 235.03909126 -225.19691467 233.42338562 C-225.21663507 229.92678759 -225.22830913 226.43023254 -225.23828125 222.93359375 C-225.24235678 221.73740984 -225.2464323 220.54122593 -225.25063133 219.30879402 C-225.27148927 212.97433775 -225.28579077 206.6399031 -225.29516602 200.30541992 C-225.30621424 193.77774344 -225.34059712 187.25040936 -225.38033772 180.72285366 C-225.40654663 175.69120165 -225.41486181 170.65963059 -225.41844749 165.62791634 C-225.42330437 163.22269447 -225.43489252 160.817476 -225.45348549 158.41232109 C-225.47796123 155.03559542 -225.4768958 151.65974711 -225.4699707 148.28295898 C-225.48278076 147.30020996 -225.49559082 146.31746094 -225.50878906 145.30493164 C-225.42898962 134.56094081 -221.9060682 125.28345807 -214.5625 117.375 C-213.2940625 116.199375 -213.2940625 116.199375 -212 115 C-211.278125 114.319375 -210.55625 113.63875 -209.8125 112.9375 C-202.53868985 107.926653 -194.50858583 105.86093921 -185.76025391 105.90576172 C-184.52191803 105.90841034 -183.28358215 105.91105896 -182.00772095 105.91378784 C-181.35110096 105.91683804 -180.69448097 105.91988823 -180.01796341 105.92303085 C-176.51452729 105.93445494 -173.01121507 105.91385697 -169.5078125 105.8984375 C-165.06160707 105.8801636 -160.616097 105.87146785 -156.16992188 105.90039062 C-152.5650501 105.92299657 -148.96167902 105.91142155 -145.35691452 105.87738419 C-143.98948981 105.87064134 -142.62194317 105.87622269 -141.25462723 105.89474106 C-133.61586438 106.16410496 -133.61586438 106.16410496 -126.68768311 103.49591064 C-124.94145109 101.75278264 -123.49443452 99.95818246 -122 98 C-120.81535666 96.9111493 -119.6087589 95.8453672 -118.375 94.8125 C-114.71856103 91.65917569 -111.16515799 88.40727248 -107.625 85.125 C-102.96073704 80.80235068 -98.26305715 76.52183243 -93.52734375 72.27734375 C-90.66917797 69.70190225 -87.83289739 67.10314236 -85 64.5 C-80.54667383 60.40830793 -76.06340112 56.35177023 -71.5625 52.3125 C-68.69399591 49.72384997 -65.8452335 47.11414854 -63 44.5 C-58.54664513 40.40833893 -54.06340146 36.35177054 -49.5625 32.3125 C-46.69399351 29.72384781 -43.84547766 27.11388476 -41 24.5 C-39.00056623 22.66604756 -37.00033181 20.83297337 -35 19 C-34.14277344 18.21367188 -33.28554687 17.42734375 -32.40234375 16.6171875 C-12.82482823 -1.19183613 -12.82482823 -1.19183613 0 0 Z M-25.8828125 55.72265625 C-26.62273437 56.49480469 -27.36265625 57.26695313 -28.125 58.0625 C-31.53496992 61.54824703 -35.01375768 64.82182183 -38.7109375 67.99609375 C-41.64962571 70.56869964 -44.51136522 73.21942651 -47.375 75.875 C-52.03921375 80.19770161 -56.7369439 84.47816852 -61.47265625 88.72265625 C-64.33082203 91.29809775 -67.16710261 93.89685764 -70 96.5 C-74.45332617 100.59169207 -78.93659888 104.64822977 -83.4375 108.6875 C-86.30600702 111.27615267 -89.15446718 113.88617485 -92 116.5 C-93.51470556 117.88880231 -95.02972785 119.27725798 -96.54492188 120.66552734 C-97.93251939 121.93811259 -99.31788021 123.2131354 -100.703125 124.48828125 C-115.62354382 138.10430763 -115.62354382 138.10430763 -125.71875 138.15771484 C-126.73630371 138.16533592 -126.73630371 138.16533592 -127.77441406 138.17311096 C-129.24599929 138.18380248 -130.71760065 138.19242743 -132.18920898 138.19923019 C-134.51750169 138.21102617 -136.8456095 138.23047902 -139.17382812 138.25234985 C-145.79290644 138.31395453 -152.41196388 138.3680713 -159.03125 138.40136719 C-163.08082598 138.42228552 -167.13006158 138.45756095 -171.17944336 138.50212479 C-172.72318523 138.51630299 -174.26698729 138.52501133 -175.81079102 138.52817917 C-177.96797456 138.53307568 -180.12425027 138.55619737 -182.28125 138.58349609 C-183.50908203 138.59158295 -184.73691406 138.5996698 -186.00195312 138.60800171 C-189.34817137 139.04552383 -189.99989793 139.40480708 -192 142 C-192.4481359 143.95812557 -192.4481359 143.95812557 -192.38095093 146.13696289 C-192.39364014 147.39876877 -192.39364014 147.39876877 -192.40658569 148.68606567 C-192.400513 149.60564056 -192.39444031 150.52521545 -192.38818359 151.47265625 C-192.39344055 152.44363251 -192.39869751 153.41460876 -192.40411377 154.41500854 C-192.41733917 157.6310017 -192.40856654 160.84650163 -192.3984375 164.0625 C-192.4004575 166.2930511 -192.40336832 168.52360156 -192.40713501 170.75415039 C-192.41156181 175.43154175 -192.40511573 180.10876139 -192.39111328 184.78613281 C-192.37402135 190.78886077 -192.3838606 196.79118635 -192.40183067 202.79389954 C-192.4126588 207.40062505 -192.40922661 212.00725479 -192.4014473 216.61398315 C-192.39944261 218.82762703 -192.40191394 221.04127953 -192.40888596 223.25491333 C-192.41648434 226.34595859 -192.40491854 229.43634751 -192.38818359 232.52734375 C-192.39425629 233.44691864 -192.40032898 234.36649353 -192.40658569 235.31393433 C-192.39389648 236.5757402 -192.39389648 236.5757402 -192.38095093 237.86303711 C-192.37981985 238.59380966 -192.37868877 239.32458221 -192.37752342 240.07749939 C-191.88600933 242.5804862 -191.01086603 243.46963042 -189 245 C-185.91180938 245.4553194 -185.91180938 245.4553194 -182.32885742 245.38476562 C-181.65530716 245.3901384 -180.9817569 245.39551117 -180.28779602 245.40104675 C-178.82605545 245.41082522 -177.36425683 245.41376867 -175.9024868 245.41069031 C-173.58577699 245.40621193 -171.26983103 245.42021348 -168.95320129 245.43908691 C-164.03131341 245.47588647 -159.10950518 245.48957431 -154.1875 245.5 C-148.49321695 245.51208977 -142.79930505 245.53372455 -137.10518837 245.58000183 C-134.82845479 245.593539 -132.55219422 245.58940648 -130.2754364 245.58459473 C-128.87006029 245.59394073 -127.46468934 245.6041109 -126.05932617 245.61523438 C-124.83815598 245.61728882 -123.61698578 245.61934326 -122.35881042 245.62145996 C-116.49048108 246.28282435 -112.59903913 249.05175724 -108.375 253 C-107.08722656 254.19109375 -107.08722656 254.19109375 -105.7734375 255.40625 C-104.85820312 256.2621875 -103.94296875 257.118125 -103 258 C-101.51117016 259.37063721 -100.01877809 260.73731295 -98.52587891 262.10351562 C-97.50390619 263.03882505 -96.48275406 263.97503184 -95.46240234 264.91210938 C-92.32482493 267.79349651 -89.17038687 270.65478101 -86 273.5 C-81.79315673 277.27537217 -77.62325147 281.08980448 -73.4609375 284.9140625 C-70.32332914 287.79422607 -67.16979059 290.65531614 -64 293.5 C-59.79315673 297.27537217 -55.62325147 301.08980448 -51.4609375 304.9140625 C-47.52909761 308.52328989 -43.56748972 312.09764291 -39.58984375 315.65625 C-37.64944786 317.41226438 -35.72764231 319.18150145 -33.81640625 320.96875 C-33.27564453 321.47212891 -32.73488281 321.97550781 -32.17773438 322.49414062 C-31.12193299 323.47844881 -30.06968278 324.46658361 -29.02148438 325.45898438 C-26.67403487 327.64258506 -25.08389457 328.97203514 -22 330 C-22 238.92 -22 147.84 -22 54 C-24.17939784 53.7749896 -24.17939784 53.7749896 -25.8828125 55.72265625 Z " fill="#000000" transform="translate(246,64)"/>
<path d="M0 0 C1.10794922 -0.03867188 1.10794922 -0.03867188 2.23828125 -0.078125 C8.24117493 0.72609042 12.29674801 4.36635569 16.375 8.5625 C16.89046387 9.08666504 17.40592773 9.61083008 17.93701172 10.15087891 C23.69581502 16.12433971 28.7409809 22.60018972 33.6875 29.25 C34.11272949 29.81444824 34.53795898 30.37889648 34.97607422 30.96044922 C58.25697199 61.974794 72.62306977 98.04199598 78.6875 136.25 C78.81592285 136.99942871 78.9443457 137.74885742 79.07666016 138.52099609 C83.05876808 162.2966866 81.9406058 188.6277351 77.6875 212.25 C77.52652832 213.14477051 77.36555664 214.03954102 77.19970703 214.96142578 C70.46705323 250.70722553 55.80169672 284.3799387 33.6875 313.25 C33.06488281 314.06597656 32.44226563 314.88195312 31.80078125 315.72265625 C13.32428571 339.37107143 13.32428571 339.37107143 4.6875 342.25 C-1.00984689 342.81430864 -5.44035716 342.53586378 -10.3125 339.25 C-14.19698797 335.14970714 -16.05320608 331.54042965 -16.6875 325.9375 C-15.85528614 317.75406368 -11.6220193 313.35927341 -5.859375 307.83203125 C23.02861343 278.54528224 40.61411067 236.64628074 45.6875 196.25 C45.82889404 195.14023804 45.82889404 195.14023804 45.97314453 194.00805664 C51.82567747 142.74342777 37.46320851 90.06552346 6.04296875 49.19140625 C0.44324173 42.19871232 -5.36691427 35.39511769 -11.375 28.75 C-14.73367539 24.90118299 -16.10728508 22.0627318 -16.6875 16.9375 C-16.09053879 11.06738142 -14.02454009 6.87852594 -9.75 2.8125 C-6.46525546 0.70689452 -3.83244622 0.07942894 0 0 Z " fill="#000000" transform="translate(410.3125,84.75)"/>
<path d="M0 0 C2.12107489 1.80291366 4.03515843 3.70491107 5.953125 5.72265625 C6.67371094 6.44710937 7.39429688 7.1715625 8.13671875 7.91796875 C29.91497691 30.79080141 40.42363243 62.04986321 40.328125 93.22265625 C40.32724884 93.92441986 40.32637268 94.62618347 40.32546997 95.34921265 C40.18754797 128.96447914 27.82686499 158.98620663 4.765625 183.41015625 C0.40943843 187.59644474 -2.85035724 189.69801916 -9.04296875 189.734375 C-15.29210731 189.32091593 -19.17521475 186.74207915 -23.421875 182.16015625 C-25.73663151 177.26355593 -25.78180934 173.04702099 -25.046875 167.72265625 C-23.06869442 162.68728751 -20.07758553 159.67684472 -16.359375 155.78515625 C-7.18574434 145.92147373 -1.07852646 133.51326813 2.953125 120.72265625 C3.27152344 119.73136719 3.58992188 118.74007812 3.91796875 117.71875 C9.71994571 95.92791488 6.68807989 71.84725599 -3.046875 51.72265625 C-3.48773438 50.80097656 -3.92859375 49.87929687 -4.3828125 48.9296875 C-8.48383383 40.89757667 -14.00674195 34.33514148 -19.921875 27.58203125 C-24.7014519 22.1130923 -25.40855646 18.55232799 -25.32421875 11.44921875 C-24.92994523 7.57312136 -23.67776877 5.56125216 -21.046875 2.72265625 C-14.75032253 -2.13093628 -7.26684838 -4.53484622 0 0 Z " fill="#000000" transform="translate(344.046875,162.27734375)"/>
</svg>
